{
  "asset": {
    "version": "2.0",
    "generator": "THREE.GLTFExporter"
  },
  "scenes": [
    {
      "name": "Scene",
      "nodes": [
        6
      ]
    }
  ],
  "scene": 0,
  "nodes": [
    {
      "name": "glass_prac_v2_1",
      "mesh": 0
    },
    {
      "name": "glass_prac_v2_2",
      "mesh": 1
    },
    {
      "name": "glass_prac_v2_3",
      "mesh": 2
    },
    {
      "name": "glass_prac_v2_4",
      "mesh": 3
    },
    {
      "matrix": [
        -0.04591364801850832,
        -0.0016362343472582656,
        0.00224556272352294,
        0,
        -0.0016150718776811724,
        0.0459668943629812,
        0.0004715062351069152,
        0,
        -0.0022608323028412624,
        0.0003917984386298979,
        -0.04594037089718488,
        0,
        0.013355337083339691,
        -0.5919837951660156,
        0.7087609171867371,
        1
      ],
      "name": "glass_prac_v2",
      "extras": {
        "name": "glass prac v2"
      },
      "children": [
        0,
        1,
        2,
        3
      ]
    },
    {
      "matrix": [
        0.5314370376172205,
        0.01913117347680769,
        -1.156277449222781,
        0,
        0.01415440956342579,
        2.0741447475487025,
        0.04082325701559993,
        0,
        1.1909213770279143,
        -0.01889407062648976,
        0.547047132465077,
        0,
        -0.1300586462020874,
        3.171827554702759,
        0.7608979344367981,
        1
      ],
      "name": "Cylinder",
      "extras": {
        "name": "Cylinder"
      },
      "mesh": 4
    },
    {
      "matrix": [
        0.6113821133803994,
        0,
        0,
        0,
        0,
        0.6113821133803994,
        0,
        0,
        0,
        0,
        0.6113821133803994,
        0,
        -2.698903837404405,
        0,
        0,
        1
      ],
      "name": "liquor bottle1.glb",
      "children": [
        4,
        5
      ]
    }
  ],
  "bufferViews": [
    {
      "buffer": 0,
      "byteOffset": 0,
      "byteLength": 89028,
      "target": 34962,
      "byteStride": 12
    },
    {
      "buffer": 0,
      "byteOffset": 89028,
      "byteLength": 89028,
      "target": 34962,
      "byteStride": 12
    },
    {
      "buffer": 0,
      "byteOffset": 178056,
      "byteLength": 59352,
      "target": 34962,
      "byteStride": 8
    },
    {
      "buffer": 0,
      "byteOffset": 237408,
      "byteLength": 25724,
      "target": 34963
    },
    {
      "buffer": 0,
      "byteOffset": 263132,
      "byteLength": 61704,
      "target": 34962,
      "byteStride": 12
    },
    {
      "buffer": 0,
      "byteOffset": 324836,
      "byteLength": 61704,
      "target": 34962,
      "byteStride": 12
    },
    {
      "buffer": 0,
      "byteOffset": 386540,
      "byteLength": 41136,
      "target": 34962,
      "byteStride": 8
    },
    {
      "buffer": 0,
      "byteOffset": 427676,
      "byteLength": 23564,
      "target": 34963
    },
    {
      "buffer": 0,
      "byteOffset": 451240,
      "byteLength": 36972,
      "target": 34962,
      "byteStride": 12
    },
    {
      "buffer": 0,
      "byteOffset": 488212,
      "byteLength": 36972,
      "target": 34962,
      "byteStride": 12
    },
    {
      "buffer": 0,
      "byteOffset": 525184,
      "byteLength": 24648,
      "target": 34962,
      "byteStride": 8
    },
    {
      "buffer": 0,
      "byteOffset": 549832,
      "byteLength": 9992,
      "target": 34963
    },
    {
      "buffer": 0,
      "byteOffset": 559824,
      "byteLength": 22188,
      "target": 34962,
      "byteStride": 12
    },
    {
      "buffer": 0,
      "byteOffset": 582012,
      "byteLength": 22188,
      "target": 34962,
      "byteStride": 12
    },
    {
      "buffer": 0,
      "byteOffset": 604200,
      "byteLength": 14792,
      "target": 34962,
      "byteStride": 8
    },
    {
      "buffer": 0,
      "byteOffset": 618992,
      "byteLength": 5376,
      "target": 34963
    },
    {
      "buffer": 0,
      "byteOffset": 624368,
      "byteLength": 624,
      "target": 34962,
      "byteStride": 12
    },
    {
      "buffer": 0,
      "byteOffset": 624992,
      "byteLength": 624,
      "target": 34962,
      "byteStride": 12
    },
    {
      "buffer": 0,
      "byteOffset": 625616,
      "byteLength": 416,
      "target": 34962,
      "byteStride": 8
    },
    {
      "buffer": 0,
      "byteOffset": 626032,
      "byteLength": 156,
      "target": 34963
    }
  ],
  "buffers": [
    {
      "byteLength": 626188,
      "uri": "data:application/octet-stream;base64,"
    }
  ],
  "accessors": [
    {
      "bufferView": 0,
      "componentType": 5126,
      "count": 7419,
      "max": [
        24.2998046875,
        237.31494140625,
        24.035276412963867
      ],
      "min": [
        -24.58786964416504,
        18.920455932617188,
        -25.267122268676758
      ],
      "type": "VEC3"
    },
    {
      "bufferView": 1,
      "componentType": 5126,
      "count": 7419,
      "max": [
        0.999775230884552,
        0.9999013543128967,
        0.9992194771766663
      ],
      "min": [
        -0.9999898672103882,
        -0.9977170825004578,
        -0.9994000196456909
      ],
      "type": "VEC3"
    },
    {
      "bufferView": 2,
      "componentType": 5126,
      "count": 7419,
      "max": [
        22.73618507385254,
        1.433637022972107
      ],
      "min": [
        -23.1480770111084,
        -18.68992042541504
      ],
      "type": "VEC2"
    },
    {
      "bufferView": 3,
      "componentType": 5123,
      "count": 12861,
      "max": [
        7418
      ],
      "min": [
        0
      ],
      "type": "SCALAR"
    },
    {
      "bufferView": 4,
      "componentType": 5126,
      "count": 5142,
      "max": [
        26.86913299560547,
        225.03746032714844,
        27.83652687072754
      ],
      "min": [
        -27.265371322631836,
        16.588714599609375,
        -28.308399200439453
      ],
      "type": "VEC3"
    },
    {
      "bufferView": 5,
      "componentType": 5126,
      "count": 5142,
      "max": [
        0.9998756647109985,
        0.9974574446678162,
        0.9996561408042908
      ],
      "min": [
        -0.9996300339698792,
        -0.9999048709869385,
        -0.9995701909065247
      ],
      "type": "VEC3"
    },
    {
      "bufferView": 6,
      "componentType": 5126,
      "count": 5142,
      "max": [
        22.077802658081055,
        1
      ],
      "min": [
        -23.67037582397461,
        -18.600297927856445
      ],
      "type": "VEC2"
    },
    {
      "bufferView": 7,
      "componentType": 5123,
      "count": 11781,
      "max": [
        5141
      ],
      "min": [
        0
      ],
      "type": "SCALAR"
    },
    {
      "bufferView": 8,
      "componentType": 5126,
      "count": 3081,
      "max": [
        11.779898643493652,
        237.31494140625,
        11.727485656738281
      ],
      "min": [
        -11.76111888885498,
        221.6839599609375,
        -11.801491737365723
      ],
      "type": "VEC3"
    },
    {
      "bufferView": 9,
      "componentType": 5126,
      "count": 3081,
      "max": [
        0.9990389347076416,
        0.9992437362670898,
        0.9990386366844177
      ],
      "min": [
        -0.9999903440475464,
        -0.43831878900527954,
        -0.9990400671958923
      ],
      "type": "VEC3"
    },
    {
      "bufferView": 10,
      "componentType": 5126,
      "count": 3081,
      "max": [
        1.5871299505233765,
        1.433637022972107
      ],
      "min": [
        -3.940419912338257,
        -5.884339809417725
      ],
      "type": "VEC2"
    },
    {
      "bufferView": 11,
      "componentType": 5123,
      "count": 4995,
      "max": [
        3080
      ],
      "min": [
        0
      ],
      "type": "SCALAR"
    },
    {
      "bufferView": 12,
      "componentType": 5126,
      "count": 1849,
      "max": [
        14.1994047164917,
        217.51629638671875,
        14.315473556518555
      ],
      "min": [
        -16.240442276000977,
        184.3206329345703,
        -13.586393356323242
      ],
      "type": "VEC3"
    },
    {
      "bufferView": 13,
      "componentType": 5126,
      "count": 1849,
      "max": [
        0.9971644878387451,
        0.9967320561408997,
        0.9987492561340332
      ],
      "min": [
        -0.998967170715332,
        -0.996622622013092,
        -0.9996654391288757
      ],
      "type": "VEC3"
    },
    {
      "bufferView": 14,
      "componentType": 5126,
      "count": 1849,
      "max": [
        22.73618507385254,
        1.242148518562317
      ],
      "min": [
        -23.763282775878906,
        -18.68992042541504
      ],
      "type": "VEC2"
    },
    {
      "bufferView": 15,
      "componentType": 5123,
      "count": 2688,
      "max": [
        1848
      ],
      "min": [
        0
      ],
      "type": "SCALAR"
    },
    {
      "bufferView": 16,
      "componentType": 5126,
      "count": 52,
      "max": [
        1,
        1,
        1
      ],
      "min": [
        -0.8314695954322815,
        -1,
        0
      ],
      "type": "VEC3"
    },
    {
      "bufferView": 17,
      "componentType": 5126,
      "count": 52,
      "max": [
        0.9951865673065186,
        0,
        0.9951865673065186
      ],
      "min": [
        -0.7730029225349426,
        0,
        0.09799867868423462
      ],
      "type": "VEC3"
    },
    {
      "bufferView": 18,
      "componentType": 5126,
      "count": 52,
      "max": [
        0.9517648220062256,
        0.9779524803161621
      ],
      "min": [
        0.02642962336540222,
        0.010936379432678223
      ],
      "type": "VEC2"
    },
    {
      "bufferView": 19,
      "componentType": 5123,
      "count": 78,
      "max": [
        51
      ],
      "min": [
        0
      ],
      "type": "SCALAR"
    }
  ],
  "materials": [
    {
      "pbrMetallicRoughness": {
        "baseColorFactor": [
          0.4912278652191162,
          0.5165365934371948,
          0.5225217938423157,
          1
        ],
        "metallicFactor": 0,
        "roughnessFactor": 1
      },
      "doubleSided": true,
      "name": "Glass_-_Frosted",
      "extensions": {
        "KHR_materials_transmission": {
          "transmissionFactor": 1
        },
        "KHR_materials_volume": {
          "thicknessFactor": 0,
          "attenuationDistance": null,
          "attenuationColor": [
            1,
            1,
            1
          ]
        },
        "KHR_materials_ior": {
          "ior": 1.4500000476837158
        }
      }
    },
    {
      "pbrMetallicRoughness": {
        "baseColorFactor": [
          0.08877921104431152,
          0.08082771301269531,
          0.03428897261619568,
          1
        ],
        "metallicFactor": 0,
        "roughnessFactor": 0.5
      },
      "doubleSided": true,
      "name": "Material.001",
      "extensions": {
        "KHR_materials_transmission": {
          "transmissionFactor": 0.4862385392189026
        },
        "KHR_materials_volume": {
          "thicknessFactor": 0,
          "attenuationDistance": null,
          "attenuationColor": [
            1,
            1,
            1
          ]
        },
        "KHR_materials_ior": {
          "ior": 1.4500000476837158
        }
      }
    },
    {
      "pbrMetallicRoughness": {
        "baseColorFactor": [
          0.8000000715255737,
          0.5663594007492065,
          0.015082485042512417,
          1
        ],
        "metallicFactor": 0,
        "roughnessFactor": 0.5
      },
      "doubleSided": true,
      "name": "Material.002"
    },
    {
      "pbrMetallicRoughness": {
        "baseColorFactor": [
          0.0002387355489190668,
          0.0008434311603195965,
          0.02924320288002491,
          1
        ],
        "metallicFactor": 0,
        "roughnessFactor": 0.5
      },
      "doubleSided": true,
      "name": "Material.003"
    },
    {
      "pbrMetallicRoughness": {
        "metallicFactor": 0,
        "roughnessFactor": 0.5,
        "baseColorTexture": {
          "index": 0,
          "texCoord": 0
        }
      },
      "doubleSided": true,
      "name": "Material.004"
    }
  ],
  "meshes": [
    {
      "primitives": [
        {
          "mode": 4,
          "attributes": {
            "POSITION": 0,
            "NORMAL": 1,
            "TEXCOORD_0": 2
          },
          "indices": 3,
          "material": 0
        }
      ]
    },
    {
      "primitives": [
        {
          "mode": 4,
          "attributes": {
            "POSITION": 4,
            "NORMAL": 5,
            "TEXCOORD_0": 6
          },
          "indices": 7,
          "material": 1
        }
      ]
    },
    {
      "primitives": [
        {
          "mode": 4,
          "attributes": {
            "POSITION": 8,
            "NORMAL": 9,
            "TEXCOORD_0": 10
          },
          "indices": 11,
          "material": 2
        }
      ]
    },
    {
      "primitives": [
        {
          "mode": 4,
          "attributes": {
            "POSITION": 12,
            "NORMAL": 13,
            "TEXCOORD_0": 14
          },
          "indices": 15,
          "material": 3
        }
      ]
    },
    {
      "primitives": [
        {
          "mode": 4,
          "attributes": {
            "POSITION": 16,
            "NORMAL": 17,
            "TEXCOORD_0": 18
          },
          "indices": 19,
          "material": 4
        }
      ]
    }
  ],
  "textures": [
    {
      "sampler": 0,
      "source": 0,
      "name": "download"
    }
  ],
  "samplers": [
    {
      "magFilter": 9729,
      "minFilter": 9987,
      "wrapS": 10497,
      "wrapT": 10497
    }
  ],
  "images": [
    {
      "mimeType": "image/jpeg",
      "uri": "data:image/jpeg;base64,"
    }
  ],
  "extensionsUsed": [
    "KHR_materials_transmission",
    "KHR_materials_volume",
    "KHR_materials_ior"
  ]
}